<svg xmlns="http://www.w3.org/2000/svg" viewBox="0 0 512 512" fill="#4f46e5">
  <path d="M464 256A208 208 0 1 0 48 256a208 208 0 1 0 416 0zM100.7 109.5l166.3 93.5c5.8 3.3 13.1 1.2 16.4-4.6s1.2-13.1-4.6-16.4l-166.3-93.5c-5.8-3.3-13.1-1.2-16.4 4.6s-1.2 13.1 4.6 16.4zm256 293l-166.3-93.5c-5.8-3.3-13.1-1.2-16.4 4.6s-1.2 13.1 4.6 16.4l166.3 93.5c5.8 3.3 13.1 1.2 16.4-4.6s1.2-13.1-4.6-16.4zm-210-98.5l166.3-93.5c5.8-3.3 7.9-10.6 4.6-16.4s-10.6-7.9-16.4-4.6l-166.3 93.5c-5.8 3.3-7.9 10.6-4.6 16.4s10.6 7.9 16.4 4.6z"/>
</svg>
